<svg width="371.9px" height="107.6px" xmlns="http://www.w3.org/2000/svg" viewBox="64.05000000000001 21.200000000000003 371.9 107.6" style="background: rgba(0, 0, 0, 0);" preserveAspectRatio="xMidYMid"><defs><linearGradient id="editing-shiny-gradient" x1="0.04322727117869957" x2="0.9567727288213004" y1="0.2966316784620999" y2="0.7033683215379001" gradientUnits="objectBoundingBox"><stop offset="0.0" stop-color="#ffb200"></stop><stop offset="0.5" stop-color="#e10057"></stop><stop offset="1.0" stop-color="#5a1a80"></stop></linearGradient><linearGradient id="editing-shiny-gradient2" x1="0" x2="0" y1="0" y2="1"><stop offset="0.2" stop-color="#fff" stop-opacity="0.8"></stop><stop offset="0.8" stop-color="#fff" stop-opacity="0"></stop></linearGradient><filter id="editing-shiny2" x="-100%" y="-100%" width="300%" height="300%"><feMorphology operator="erode" radius="2"></feMorphology></filter><filter id="editing-shiny" x="-100%" y="-100%" width="300%" height="300%"><feFlood flood-color="#fff" result="flood"></feFlood><feConvolveMatrix in="SourceGraphic" result="conv" order="8,8" divisor="1" kernelMatrix="0 0 0 0 0 0 0 0 0 0 0 1 1 0 0 0 0 0 0 1 1 0 0 0 0 0 1 0 0 1 0 0 0 0 1 0 0 1 0 0 0 1 0 0 0 0 1 0 0 1 1 0 0 1 1 0 0 0 0 1 1 0 0 0 "></feConvolveMatrix><feOffset dx="0" dy="4" in="conv" result="offset"></feOffset><feComposite operator="in" in="flood" in2="offset" result="comp"></feComposite><feGaussianBlur in="offset" stdDeviation="3" result="shadow"></feGaussianBlur><feColorMatrix in="shadow" type="matrix" values="0.7 0 0 0 0  0 0.7 0 0 0  0 0 0.7 0 0  0 0 0 0.3 0" result="dark-shadow"></feColorMatrix><feOffset dx="0" dy="4" in="dark-shadow" result="offset-shadow"></feOffset><feOffset dx="0" dy="2" in="conv" result="offset-2"></feOffset><feComposite operator="out" in="offset" in2="offset-2" result="edge-diff"></feComposite><feGaussianBlur in="edge-diff" stdDeviation="1" result="edge-blur"></feGaussianBlur><feColorMatrix in="edge-blur" result="edge-shadow" type="matrix" values="0 0 0 0 0  0 0 0 0 0  0 0 0 0 0  0 0 0 0.5 0"></feColorMatrix><feComposite operator="in" in="edge-shadow" in2="offset" result="edge-shadow-in"></feComposite><feOffset dx="0" dy="1" in="edge-shadow-in" result="edge-shadow-final"></feOffset><feMerge result="out"><feMergeNode in="offset-shadow"></feMergeNode><feMergeNode in="comp"></feMergeNode><feMergeNode in="edge-shadow-final"></feMergeNode><feMergeNode in="SourceGraphic"></feMergeNode></feMerge></filter></defs><g filter="url(#editing-shiny)"><g transform="translate(105.23497927188873, 96.85500144958496)"><path d="M12.29 0L12.29-35.52L1.15-35.52L1.15-43.58L31.36-43.58L31.36-35.52L20.10-35.52L20.10 0L12.29 0ZM49.28-25.28L47.68-25.28L47.68-25.28Q46.02-25.28 44.96-24.86L44.96-24.86L44.96-24.86Q43.90-24.45 43.33-23.74L43.33-23.74L43.33-23.74Q42.75-23.04 42.53-22.05L42.53-22.05L42.53-22.05Q42.30-21.06 42.30-19.90L42.30-19.90L42.30 0L35.14 0L35.14-43.58L42.30-43.58L42.30-31.87L42.30-31.87Q43.26-32.19 44.32-32.38L44.32-32.38L44.32-32.38Q45.38-32.58 46.59-32.58L46.59-32.58L50.43-32.58L50.43-32.58Q53.25-32.58 55.39-31.62L55.39-31.62L55.39-31.62Q57.54-30.66 58.98-29.09L58.98-29.09L58.98-29.09Q60.42-27.52 61.12-25.50L61.12-25.50L61.12-25.50Q61.82-23.49 61.82-21.44L61.82-21.44L61.82 0L54.59 0L54.59-19.90L54.59-19.90Q54.59-21.06 54.40-22.05L54.40-22.05L54.40-22.05Q54.21-23.04 53.60-23.74L53.60-23.74L53.60-23.74Q52.99-24.45 51.97-24.86L51.97-24.86L51.97-24.86Q50.94-25.28 49.28-25.28L49.28-25.28ZM66.05-11.07L66.05-20.99L66.05-20.99Q66.05-23.36 66.94-25.44L66.94-25.44L66.94-25.44Q67.84-27.52 69.31-29.12L69.31-29.12L69.31-29.12Q70.78-30.72 72.70-31.65L72.70-31.65L72.70-31.65Q74.62-32.58 76.54-32.58L76.54-32.58L83.84-32.58L83.84-32.58Q86.34-32.58 88.29-31.52L88.29-31.52L88.29-31.52Q90.24-30.46 91.55-28.83L91.55-28.83L91.55-28.83Q92.86-27.20 93.60-25.18L93.60-25.18L93.60-25.18Q94.34-23.17 94.34-21.25L94.34-21.25L94.34-12.99L73.60-12.99L73.60-11.26L73.60-11.26Q73.60-8.96 74.88-8L74.88-8L74.88-8Q76.16-7.04 78.27-7.04L78.27-7.04L93.18-7.04L93.18 0.13L76.61 0.13L76.61 0.13Q74.43 0.13 72.51-0.74L72.51-0.74L72.51-0.74Q70.59-1.60 69.15-3.07L69.15-3.07L69.15-3.07Q67.71-4.54 66.88-6.59L66.88-6.59L66.88-6.59Q66.05-8.64 66.05-11.07L66.05-11.07ZM73.66-19.39L73.66-19.07L86.91-19.07L86.91-19.39L86.91-19.39Q86.91-21.89 85.63-23.52L85.63-23.52L85.63-23.52Q84.35-25.15 82.18-25.15L82.18-25.15L78.21-25.15L78.21-25.15Q77.18-25.15 76.35-24.67L76.35-24.67L76.35-24.67Q75.52-24.19 74.94-23.42L74.94-23.42L74.94-23.42Q74.37-22.66 74.02-21.60L74.02-21.60L74.02-21.60Q73.66-20.54 73.66-19.39L73.66-19.39ZM160.06-7.55L165.70-7.55L165.70-7.55Q167.55-7.55 168.70-8.67L168.70-8.67L168.70-8.67Q169.86-9.79 170.24-11.39L170.24-11.39L170.24-18.62L163.01-18.62L163.01-25.47L177.60-25.47L177.60 0L170.24 0L170.24-1.41L170.24-1.41Q168.96-0.70 167.46-0.35L167.46-0.35L167.46-0.35Q165.95 0 164.42 0L164.42 0L160 0L160 0Q157.44 0 155.14-0.99L155.14-0.99L155.14-0.99Q152.83-1.98 151.10-3.71L151.10-3.71L151.10-3.71Q149.38-5.44 148.38-7.74L148.38-7.74L148.38-7.74Q147.39-10.05 147.39-12.67L147.39-12.67L147.39-30.85L147.39-30.85Q147.39-33.47 148.38-35.81L148.38-35.81L148.38-35.81Q149.38-38.14 151.10-39.87L151.10-39.87L151.10-39.87Q152.83-41.60 155.14-42.59L155.14-42.59L155.14-42.59Q157.44-43.58 160-43.58L160-43.58L165.50-43.58L165.50-43.58Q168-43.58 170.11-42.69L170.11-42.69L170.11-42.69Q172.22-41.79 173.79-40.22L173.79-40.22L173.79-40.22Q175.36-38.66 176.32-36.54L176.32-36.54L176.32-36.54Q177.28-34.43 177.54-32L177.54-32L169.66-32L169.66-32Q169.22-33.66 168.29-34.82L168.29-34.82L168.29-34.82Q167.36-35.97 165.44-35.97L165.44-35.97L160.06-35.97L160.06-35.97Q158.98-35.97 158.05-35.55L158.05-35.55L158.05-35.55Q157.12-35.14 156.48-34.37L156.48-34.37L156.48-34.37Q155.84-33.60 155.49-32.61L155.49-32.61L155.49-32.61Q155.14-31.62 155.14-30.46L155.14-30.46L155.14-13.12L155.14-13.12Q155.14-11.97 155.49-10.98L155.49-10.98L155.49-10.98Q155.84-9.98 156.48-9.22L156.48-9.22L156.48-9.22Q157.12-8.45 158.05-8L158.05-8L158.05-8Q158.98-7.55 160.06-7.55L160.06-7.55ZM191.10-32.83L191.10-25.92L191.10-25.92Q192-27.39 193.50-28.51L193.50-28.51L193.50-28.51Q195.01-29.63 196.83-30.40L196.83-30.40L196.83-30.40Q198.66-31.17 200.70-31.55L200.70-31.55L200.70-31.55Q202.75-31.94 204.80-31.94L204.80-31.94L205.63-31.94L205.63-24L204.80-24L204.80-24Q202.50-24 200.06-23.07L200.06-23.07L200.06-23.07Q197.63-22.14 195.62-20.64L195.62-20.64L195.62-20.64Q193.60-19.14 192.35-17.28L192.35-17.28L192.35-17.28Q191.10-15.42 191.10-13.57L191.10-13.57L191.10 0L183.17 0L183.17-32.83L191.10-32.83ZM216.96-22.27L209.54-22.27L209.54-22.27Q209.73-24.32 210.46-26.18L210.46-26.18L210.46-26.18Q211.20-28.03 212.61-29.44L212.61-29.44L212.61-29.44Q214.02-30.85 216.13-31.71L216.13-31.71L216.13-31.71Q218.24-32.58 220.99-32.58L220.99-32.58L224.83-32.58L224.83-32.58Q227.71-32.58 229.86-31.62L229.86-31.62L229.86-31.62Q232-30.66 233.41-29.09L233.41-29.09L233.41-29.09Q234.82-27.52 235.52-25.50L235.52-25.50L235.52-25.50Q236.22-23.49 236.22-21.44L236.22-21.44L236.22 0L218.05 0L218.05 0Q215.94 0 214.27-0.80L214.27-0.80L214.27-0.80Q212.61-1.60 211.49-2.91L211.49-2.91L211.49-2.91Q210.37-4.22 209.82-6.02L209.82-6.02L209.82-6.02Q209.28-7.81 209.28-9.86L209.28-9.86L209.28-9.86Q209.28-11.84 209.86-13.57L209.86-13.57L209.86-13.57Q210.43-15.30 211.52-16.54L211.52-16.54L211.52-16.54Q212.61-17.79 214.24-18.53L214.24-18.53L214.24-18.53Q215.87-19.26 217.92-19.26L217.92-19.26L228.86-19.26L228.86-19.90L228.86-19.90Q228.86-21.06 228.67-22.05L228.67-22.05L228.67-22.05Q228.48-23.04 227.97-23.74L227.97-23.74L227.97-23.74Q227.46-24.45 226.43-24.86L226.43-24.86L226.43-24.86Q225.41-25.28 223.68-25.28L223.68-25.28L222.08-25.28L222.08-25.28Q219.52-25.28 218.43-24.54L218.43-24.54L218.43-24.54Q217.34-23.81 216.96-22.27L216.96-22.27ZM216.13-9.86L216.13-9.86L216.13-9.86Q216.13-8.19 216.80-7.39L216.80-7.39L216.80-7.39Q217.47-6.59 218.30-6.59L218.30-6.59L228.86-6.59L228.86-13.12L218.30-13.12L218.30-13.12Q217.47-13.12 216.80-12.29L216.80-12.29L216.80-12.29Q216.13-11.46 216.13-9.86ZM275.71-25.28L274.11-25.28L274.11-25.28Q272.45-25.28 271.42-24.86L271.42-24.86L271.42-24.86Q270.40-24.45 269.86-23.74L269.86-23.74L269.86-23.74Q269.31-23.04 269.12-22.08L269.12-22.08L269.12-22.08Q268.93-21.12 268.93-19.97L268.93-19.97L268.93 0L261.44 0L261.44-19.90L261.44-19.90Q261.44-21.06 261.25-22.05L261.25-22.05L261.25-22.05Q261.06-23.04 260.51-23.74L260.51-23.74L260.51-23.74Q259.97-24.45 258.94-24.86L258.94-24.86L258.94-24.86Q257.92-25.28 256.19-25.28L256.19-25.28L254.66-25.28L254.66-25.28Q252.99-25.28 251.94-24.86L251.94-24.86L251.94-24.86Q250.88-24.45 250.30-23.74L250.30-23.74L250.30-23.74Q249.73-23.04 249.50-22.05L249.50-22.05L249.50-22.05Q249.28-21.06 249.28-19.90L249.28-19.90L249.28 0L241.79 0L241.79-32.58L249.28-32.58L249.28-31.62L249.28-31.62Q251.78-32.58 254.59-32.58L254.59-32.58L257.41-32.58L257.41-32.58Q259.97-32.58 261.95-31.81L261.95-31.81L261.95-31.81Q263.94-31.04 265.34-29.70L265.34-29.70L265.34-29.70Q266.88-31.04 268.93-31.81L268.93-31.81L268.93-31.81Q270.98-32.58 273.54-32.58L273.54-32.58L276.86-32.58L276.86-32.58Q279.68-32.58 281.86-31.62L281.86-31.62L281.86-31.62Q284.03-30.66 285.47-29.09L285.47-29.09L285.47-29.09Q286.91-27.52 287.65-25.50L287.65-25.50L287.65-25.50Q288.38-23.49 288.38-21.44L288.38-21.44L288.38 0L280.96 0L280.96-19.90L280.96-19.90Q280.96-21.06 280.77-22.05L280.77-22.05L280.77-22.05Q280.58-23.04 280-23.74L280-23.74L280-23.74Q279.42-24.45 278.40-24.86L278.40-24.86L278.40-24.86Q277.38-25.28 275.71-25.28L275.71-25.28Z" fill="url(#editing-shiny-gradient)"></path></g></g><g filter="url(#editing-shiny2)"><g transform="translate(105.23500978946686, 96.8549976348877)"><path d="M12.29 0L12.29-35.52L1.15-35.52L1.15-43.58L31.36-43.58L31.36-35.52L20.10-35.52L20.10 0L12.29 0ZM49.28-25.28L47.68-25.28L47.68-25.28Q46.02-25.28 44.96-24.86L44.96-24.86L44.96-24.86Q43.90-24.45 43.33-23.74L43.33-23.74L43.33-23.74Q42.75-23.04 42.53-22.05L42.53-22.05L42.53-22.05Q42.30-21.06 42.30-19.90L42.30-19.90L42.30 0L35.14 0L35.14-43.58L42.30-43.58L42.30-31.87L42.30-31.87Q43.26-32.19 44.32-32.38L44.32-32.38L44.32-32.38Q45.38-32.58 46.59-32.58L46.59-32.58L50.43-32.58L50.43-32.58Q53.25-32.58 55.39-31.62L55.39-31.62L55.39-31.62Q57.54-30.66 58.98-29.09L58.98-29.09L58.98-29.09Q60.42-27.52 61.12-25.50L61.12-25.50L61.12-25.50Q61.82-23.49 61.82-21.44L61.82-21.44L61.82 0L54.59 0L54.59-19.90L54.59-19.90Q54.59-21.06 54.40-22.05L54.40-22.05L54.40-22.05Q54.21-23.04 53.60-23.74L53.60-23.74L53.60-23.74Q52.99-24.45 51.97-24.86L51.97-24.86L51.97-24.86Q50.94-25.28 49.28-25.28L49.28-25.28ZM66.05-11.07L66.05-20.99L66.05-20.99Q66.05-23.36 66.94-25.44L66.94-25.44L66.94-25.44Q67.84-27.52 69.31-29.12L69.31-29.12L69.31-29.12Q70.78-30.72 72.70-31.65L72.70-31.65L72.70-31.65Q74.62-32.58 76.54-32.58L76.54-32.58L83.84-32.58L83.84-32.58Q86.34-32.58 88.29-31.52L88.29-31.52L88.29-31.52Q90.24-30.46 91.55-28.83L91.55-28.83L91.55-28.83Q92.86-27.20 93.60-25.18L93.60-25.18L93.60-25.18Q94.34-23.17 94.34-21.25L94.34-21.25L94.34-12.99L73.60-12.99L73.60-11.26L73.60-11.26Q73.60-8.96 74.88-8L74.88-8L74.88-8Q76.16-7.04 78.27-7.04L78.27-7.04L93.18-7.04L93.18 0.13L76.61 0.13L76.61 0.13Q74.43 0.13 72.51-0.74L72.51-0.74L72.51-0.74Q70.59-1.60 69.15-3.07L69.15-3.07L69.15-3.07Q67.71-4.54 66.88-6.59L66.88-6.59L66.88-6.59Q66.05-8.64 66.05-11.07L66.05-11.07ZM73.66-19.39L73.66-19.07L86.91-19.07L86.91-19.39L86.91-19.39Q86.91-21.89 85.63-23.52L85.63-23.52L85.63-23.52Q84.35-25.15 82.18-25.15L82.18-25.15L78.21-25.15L78.21-25.15Q77.18-25.15 76.35-24.67L76.35-24.67L76.35-24.67Q75.52-24.19 74.94-23.42L74.94-23.42L74.94-23.42Q74.37-22.66 74.02-21.60L74.02-21.60L74.02-21.60Q73.66-20.54 73.66-19.39L73.66-19.39ZM160.06-7.55L165.70-7.55L165.70-7.55Q167.55-7.55 168.70-8.67L168.70-8.67L168.70-8.67Q169.86-9.79 170.24-11.39L170.24-11.39L170.24-18.62L163.01-18.62L163.01-25.47L177.60-25.47L177.60 0L170.24 0L170.24-1.41L170.24-1.41Q168.96-0.70 167.46-0.35L167.46-0.35L167.46-0.35Q165.95 0 164.42 0L164.42 0L160 0L160 0Q157.44 0 155.14-0.99L155.14-0.99L155.14-0.99Q152.83-1.98 151.10-3.71L151.10-3.71L151.10-3.71Q149.38-5.44 148.38-7.74L148.38-7.74L148.38-7.74Q147.39-10.05 147.39-12.67L147.39-12.67L147.39-30.85L147.39-30.85Q147.39-33.47 148.38-35.81L148.38-35.81L148.38-35.81Q149.38-38.14 151.10-39.87L151.10-39.87L151.10-39.87Q152.83-41.60 155.14-42.59L155.14-42.59L155.14-42.59Q157.44-43.58 160-43.58L160-43.58L165.50-43.58L165.50-43.58Q168-43.58 170.11-42.69L170.11-42.69L170.11-42.69Q172.22-41.79 173.79-40.22L173.79-40.22L173.79-40.22Q175.36-38.66 176.32-36.54L176.32-36.54L176.32-36.54Q177.28-34.43 177.54-32L177.54-32L169.66-32L169.66-32Q169.22-33.66 168.29-34.82L168.29-34.82L168.29-34.82Q167.36-35.97 165.44-35.97L165.44-35.97L160.06-35.97L160.06-35.97Q158.98-35.97 158.05-35.55L158.05-35.55L158.05-35.55Q157.12-35.14 156.48-34.37L156.48-34.37L156.48-34.37Q155.84-33.60 155.49-32.61L155.49-32.61L155.49-32.61Q155.14-31.62 155.14-30.46L155.14-30.46L155.14-13.12L155.14-13.12Q155.14-11.97 155.49-10.98L155.49-10.98L155.49-10.98Q155.84-9.98 156.48-9.22L156.48-9.22L156.48-9.22Q157.12-8.45 158.05-8L158.05-8L158.05-8Q158.98-7.55 160.06-7.55L160.06-7.55ZM191.10-32.83L191.10-25.92L191.10-25.92Q192-27.39 193.50-28.51L193.50-28.51L193.50-28.51Q195.01-29.63 196.83-30.40L196.83-30.40L196.83-30.40Q198.66-31.17 200.70-31.55L200.70-31.55L200.70-31.55Q202.75-31.94 204.80-31.94L204.80-31.94L205.63-31.94L205.63-24L204.80-24L204.80-24Q202.50-24 200.06-23.07L200.06-23.07L200.06-23.07Q197.63-22.14 195.62-20.64L195.62-20.64L195.62-20.64Q193.60-19.14 192.35-17.28L192.35-17.28L192.35-17.28Q191.10-15.42 191.10-13.57L191.10-13.57L191.10 0L183.17 0L183.17-32.83L191.10-32.83ZM216.96-22.27L209.54-22.27L209.54-22.27Q209.73-24.32 210.46-26.18L210.46-26.18L210.46-26.18Q211.20-28.03 212.61-29.44L212.61-29.44L212.61-29.44Q214.02-30.85 216.13-31.71L216.13-31.71L216.13-31.71Q218.24-32.58 220.99-32.58L220.99-32.58L224.83-32.58L224.83-32.58Q227.71-32.58 229.86-31.62L229.86-31.62L229.86-31.62Q232-30.66 233.41-29.09L233.41-29.09L233.41-29.09Q234.82-27.52 235.52-25.50L235.52-25.50L235.52-25.50Q236.22-23.49 236.22-21.44L236.22-21.44L236.22 0L218.05 0L218.05 0Q215.94 0 214.27-0.80L214.27-0.80L214.27-0.80Q212.61-1.60 211.49-2.91L211.49-2.91L211.49-2.91Q210.37-4.22 209.82-6.02L209.82-6.02L209.82-6.02Q209.28-7.81 209.28-9.86L209.28-9.86L209.28-9.86Q209.28-11.84 209.86-13.57L209.86-13.57L209.86-13.57Q210.43-15.30 211.52-16.54L211.52-16.54L211.52-16.54Q212.61-17.79 214.24-18.53L214.24-18.53L214.24-18.53Q215.87-19.26 217.92-19.26L217.92-19.26L228.86-19.26L228.86-19.90L228.86-19.90Q228.86-21.06 228.67-22.05L228.67-22.05L228.67-22.05Q228.48-23.04 227.97-23.74L227.97-23.74L227.97-23.74Q227.46-24.45 226.43-24.86L226.43-24.86L226.43-24.86Q225.41-25.28 223.68-25.28L223.68-25.28L222.08-25.28L222.08-25.28Q219.52-25.28 218.43-24.54L218.43-24.54L218.43-24.54Q217.34-23.81 216.96-22.27L216.96-22.27ZM216.13-9.86L216.13-9.86L216.13-9.86Q216.13-8.19 216.80-7.39L216.80-7.39L216.80-7.39Q217.47-6.59 218.30-6.59L218.30-6.59L228.86-6.59L228.86-13.12L218.30-13.12L218.30-13.12Q217.47-13.12 216.80-12.29L216.80-12.29L216.80-12.29Q216.13-11.46 216.13-9.86ZM275.71-25.28L274.11-25.28L274.11-25.28Q272.45-25.28 271.42-24.86L271.42-24.86L271.42-24.86Q270.40-24.45 269.86-23.74L269.86-23.74L269.86-23.74Q269.31-23.04 269.12-22.08L269.12-22.08L269.12-22.08Q268.93-21.12 268.93-19.97L268.93-19.97L268.93 0L261.44 0L261.44-19.90L261.44-19.90Q261.44-21.06 261.25-22.05L261.25-22.05L261.25-22.05Q261.06-23.04 260.51-23.74L260.51-23.74L260.51-23.74Q259.97-24.45 258.94-24.86L258.94-24.86L258.94-24.86Q257.92-25.28 256.19-25.28L256.19-25.28L254.66-25.28L254.66-25.28Q252.99-25.28 251.94-24.86L251.94-24.86L251.94-24.86Q250.88-24.45 250.30-23.74L250.30-23.74L250.30-23.74Q249.73-23.04 249.50-22.05L249.50-22.05L249.50-22.05Q249.28-21.06 249.28-19.90L249.28-19.90L249.28 0L241.79 0L241.79-32.58L249.28-32.58L249.28-31.62L249.28-31.62Q251.78-32.58 254.59-32.58L254.59-32.58L257.41-32.58L257.41-32.58Q259.97-32.58 261.95-31.81L261.95-31.81L261.95-31.81Q263.94-31.04 265.34-29.70L265.34-29.70L265.34-29.70Q266.88-31.04 268.93-31.81L268.93-31.81L268.93-31.81Q270.98-32.58 273.54-32.58L273.54-32.58L276.86-32.58L276.86-32.58Q279.68-32.58 281.86-31.62L281.86-31.62L281.86-31.62Q284.03-30.66 285.47-29.09L285.47-29.09L285.47-29.09Q286.91-27.52 287.65-25.50L287.65-25.50L287.65-25.50Q288.38-23.49 288.38-21.44L288.38-21.44L288.38 0L280.96 0L280.96-19.90L280.96-19.90Q280.96-21.06 280.77-22.05L280.77-22.05L280.77-22.05Q280.58-23.04 280-23.74L280-23.74L280-23.74Q279.42-24.45 278.40-24.86L278.40-24.86L278.40-24.86Q277.38-25.28 275.71-25.28L275.71-25.28Z" fill="url(#editing-shiny-gradient2)"></path></g></g><style>text {
  font-size: 64px;
  font-family: Arial Black;
  dominant-baseline: central;
  text-anchor: middle;
}</style></svg>